# xmcd
#
# Track frame offsets: 
#        150
#        27220
#        53498
#        73977
#        101998
#        127007
#        151223
#        177315
#        203775
#        231853
#        250295
#        267127
#        287530
#        302430
#
# Disc length: 4262 seconds
#
# Revision: 0
# Processed by: cddbd v1.5.2PL0 Copyright (c) Steve Scherf et al.
# Submitted via: ExactAudioCopy v0.99pb4
#
DISCID=c310a40e
DTITLE=Change - This Is Your Time
DYEAR=1983
DGENRE=R&B
TTITLE0=Got To Get Up
TTITLE1=This Is Your Time
TTITLE2=Angel
TTITLE3=Magical Night
TTITLE4=Stay 'N Fit
TTITLE5=Tell Me Why
TTITLE6=You'll Never Realize
TTITLE7=Don't Wait Another Night
TTITLE8=Got To Get Up (Single Version)
TTITLE9=Magical Night (Single Version)
TTITLE10=This Is Your Time (Single Version)
TTITLE11=You'll Never Realize (Single Version)
TTITLE12=Don't Wait Another Night (Single Version)
TTITLE13=Got To Get Up (Single Version)
EXTD=
EXTT0=
EXTT1=
EXTT2=
EXTT3=
EXTT4=
EXTT5=
EXTT6=
EXTT7=
EXTT8=
EXTT9=
EXTT10=
EXTT11=
EXTT12=
EXTT13=
PLAYORDER=
